<svg width="170" height="45" viewBox="0 0 170 45" fill="none" xmlns="http://www.w3.org/2000/svg">
<path d="M68.3486 9.95709V7.21017H46.7048V2.33203H74.5054V14.5984H52.9564V17.3453H75.5V22.2235H46.7521V9.95709H68.3486ZM41.2109 30.038V24.8283H80.3308V30.038H41.2109ZM46.61 40.5047V32.3586H52.9564V39.3206H75.4526V44.5303H50.6357C47.9519 44.5303 46.61 43.1884 46.61 40.5047Z" fill="#292933"/>
<path d="M39.2299 30.0461H32.9309L32.963 42.9703H26.6166V0.914062H32.963L32.9309 24.8275H39.2299V30.0461ZM14.6344 3.7557H20.7913V32.0773H0V3.7557H6.15688V13.0384H14.6344V3.7557ZM14.6344 18.2954H6.15688V26.8203H14.6344V18.2954Z" fill="#292933"/>
<path d="M169.51 16.4479V21.6576H130.391V16.4479H156.486C157.212 13.5431 157.623 10.4805 157.718 7.25996H135.742V2.09766H163.969V5.03401C163.969 8.82286 163.543 12.6275 162.691 16.4479H169.51ZM142.468 39.702H165.011V44.6748H140.194C137.511 44.6748 136.169 43.3329 136.169 40.6492V32.3137H157.576V29.4247H135.979V24.5939H163.922V36.813H142.468V39.702Z" fill="#292933"/>
<path d="M128.815 16.4491V21.652H122.563V33.1642H116.217V0.769531H122.563V16.4491H128.815ZM107.502 7.11585H94.8097V1.81146H107.502V7.11585ZM100.919 28.8543C98.8038 28.8543 96.9567 28.507 95.378 27.8124C93.8309 27.1178 92.6469 26.1864 91.826 25.0181C91.0366 23.8499 90.642 22.587 90.642 21.2293C90.642 18.5455 91.826 16.6353 94.194 15.4987V15.1198H88.2266V9.91012H113.612V15.1198H107.644V15.4987C110.044 16.6353 111.244 18.5455 111.244 21.2293C111.244 22.587 110.833 23.8499 110.012 25.0181C109.192 26.1864 107.992 27.1178 106.413 27.8124C104.866 28.507 103.035 28.8543 100.919 28.8543ZM100.588 23.55H101.251C102.482 23.55 103.477 23.2027 104.234 22.508C104.992 21.7818 105.371 20.8504 105.371 19.7138C105.371 18.5771 104.992 17.6615 104.234 16.9668C103.477 16.2407 102.482 15.8776 101.251 15.8776H100.588C99.3879 15.8776 98.4091 16.2249 97.6513 16.9195C96.8935 17.6141 96.5147 18.5455 96.5147 19.7138C96.5147 20.882 96.8935 21.8134 97.6513 22.508C98.4091 23.2027 99.3879 23.55 100.588 23.55ZM101.772 38.9422H123.558V44.1518H99.4037C96.7199 44.1518 95.378 42.8099 95.378 40.1262V31.6013H101.772V38.9422Z" fill="#292933"/>
</svg>
